<svg width="64" height="64" viewBox="0 0 64 64" fill="none" xmlns="http://www.w3.org/2000/svg">
<rect width="64" height="64" rx="8" fill="#EBE2D7"/>
<path d="M32 38L28 38L28 34L32 34L32 38Z" fill="white"/>
<path d="M32 30L28 30L28 26L32 26L32 30Z" fill="white"/>
<path d="M36 42L32 42L32 38L36 38L36 42Z" fill="white"/>
<path d="M36 26L32 26L32 22L36 22L36 26Z" fill="white"/>
<path d="M40 22L36 22L36 18L40 18L40 22Z" fill="white"/>
<path d="M40 46L36 46L36 42L40 42L40 46Z" fill="white"/>
<path d="M28 34L24 34L24 30L28 30L28 34Z" fill="white"/>
</svg>
