<svg width="64" height="64" viewBox="0 0 64 64" fill="none" xmlns="http://www.w3.org/2000/svg">
<rect width="64" height="64" rx="8" fill="#EBE2D7"/>
<path d="M31.9922 26L35.9922 26L35.9922 30L31.9922 30L31.9922 26Z" fill="white"/>
<path d="M31.9922 34L35.9922 34L35.9922 38L31.9922 38L31.9922 34Z" fill="white"/>
<path d="M27.9922 22L31.9922 22L31.9922 26L27.9922 26L27.9922 22Z" fill="white"/>
<path d="M27.9922 38L31.9922 38L31.9922 42L27.9922 42L27.9922 38Z" fill="white"/>
<path d="M23.9922 42L27.9922 42L27.9922 46L23.9922 46L23.9922 42Z" fill="white"/>
<path d="M23.9922 18L27.9922 18L27.9922 22L23.9922 22L23.9922 18Z" fill="white"/>
<path d="M35.9922 30L39.9922 30L39.9922 34L35.9922 34L35.9922 30Z" fill="white"/>
</svg>
