<svg width="373" height="194" viewBox="0 0 373 194" fill="none" xmlns="http://www.w3.org/2000/svg">
<g clip-path="url(#clip0_87_1218)">
<path fill-rule="evenodd" clip-rule="evenodd" d="M240.37 97.519C234.996 97.519 230.741 98.6503 226.486 101.139C226.486 88.6946 226.486 77.1551 226.934 73.3086L200.735 78.0602V80.3228L203.422 80.7754C207.005 81.4542 208.124 83.4905 208.796 88.2421C209.468 97.7453 209.244 147.75 208.796 156.122C215.738 157.706 223.128 158.837 230.517 158.837C251.118 158.837 263.434 145.94 263.434 125.576C263.658 109.285 253.582 97.519 240.37 97.519ZM231.413 154.312C229.845 154.312 227.83 154.312 226.71 153.859C226.262 148.429 226.039 125.35 226.262 104.986C228.502 104.307 230.069 103.854 232.085 103.854C240.594 103.854 245.296 114.036 245.296 126.481C245.296 142.32 239.474 154.312 231.413 154.312Z" fill="#141414"/>
<path fill-rule="evenodd" clip-rule="evenodd" d="M103.103 74.8921H34.8047V78.5123L38.6115 78.9648C43.7618 79.6436 45.5532 82.8114 46.4489 90.2781C47.5685 104.307 47.1207 129.875 46.4489 142.093C45.7771 149.56 43.7618 152.954 38.6115 153.406L34.8047 154.085V157.253H78.6944V154.085L73.992 153.406C68.8416 152.954 67.0502 149.56 66.1545 142.093C65.7067 136.889 65.4827 128.743 65.4827 118.561L74.8877 119.014C80.7098 119.014 83.3969 123.765 84.5165 130.327H88.0994V102.27H84.5165C83.3969 108.832 80.7098 113.583 74.8877 113.583L65.4827 114.036C65.4827 100.686 65.9306 88.2417 66.1545 80.775H79.8141C90.3387 80.775 95.7129 87.3367 99.5197 99.1025L103.326 97.9711L103.103 74.8921Z" fill="#141414"/>
<path fill-rule="evenodd" clip-rule="evenodd" d="M125.047 96.8403C144.529 96.8403 154.158 110.19 154.158 127.839C154.158 144.582 143.409 158.837 123.928 158.837C104.446 158.837 94.8172 145.487 94.8172 127.839C94.8172 110.869 105.79 96.8403 125.047 96.8403ZM123.928 100.687C115.419 100.687 113.179 112.453 113.179 127.612C113.179 142.546 116.986 154.538 124.823 154.538C133.781 154.538 136.02 142.772 136.02 127.612C136.02 112.905 132.213 100.687 123.928 100.687Z" fill="#141414"/>
<path fill-rule="evenodd" clip-rule="evenodd" d="M268.585 128.065C268.585 112 278.662 96.6142 298.367 96.6142C314.714 96.6142 322.327 108.833 322.327 124.897H286.275C285.827 139.378 292.769 150.013 306.876 150.013C313.146 150.013 316.281 148.429 320.088 145.714L321.656 147.75C317.849 153.181 309.34 158.611 298.367 158.611C281.125 158.837 268.585 146.166 268.585 128.065ZM286.499 120.825L304.637 120.372C304.637 112.453 303.517 100.687 296.8 100.687C290.306 100.687 286.947 111.774 286.499 120.825Z" fill="#141414"/>
<path fill-rule="evenodd" clip-rule="evenodd" d="M368.68 100.008C363.978 97.9717 357.932 96.8403 350.766 96.8403C336.435 96.8403 327.478 105.438 327.478 115.62C327.478 125.802 333.972 130.101 343.376 133.269C353.005 136.889 355.692 139.605 355.692 144.13C355.692 148.881 352.11 153.18 346.064 153.18C338.674 153.18 333.3 148.881 329.045 137.116L326.358 137.794L326.806 154.991C331.508 157.027 340.018 158.611 347.407 158.611C362.634 158.611 372.263 150.692 372.263 138.699C372.263 130.554 368.008 125.802 357.932 121.956C347.183 117.657 343.153 114.942 343.153 109.737C343.153 104.533 346.735 101.139 351.214 101.139C358.156 101.139 362.858 105.438 366.441 116.073L369.128 115.394L368.68 100.008Z" fill="#141414"/>
<path fill-rule="evenodd" clip-rule="evenodd" d="M204.542 98.4245C198.048 94.578 186.403 96.3881 180.133 110.643L180.581 96.8406L154.606 102.045V104.307L157.293 104.76C160.876 105.212 162.443 107.023 162.667 112.227C163.339 121.73 163.115 138.021 162.667 146.393C162.219 151.144 160.652 153.407 157.293 153.859L154.606 154.312V157.48H190.658V154.312L185.956 153.859C182.149 153.407 180.805 151.144 180.581 146.393C179.91 138.926 179.91 123.992 180.133 114.716C182.149 112 190.658 109.511 198.272 114.716L204.542 98.4245Z" fill="#141414"/>
</g>
<g clip-path="url(#clip1_87_1218)">
<g clip-path="url(#clip2_87_1218)">
<g opacity="0.12">
<path d="M50.6084 33.5098H83.059L61.6453 84.5277L61.1772 85.6429H62.3866H86.518V149.456H16.8828V85.0784L50.6084 33.5098ZM140.171 33.5098H172.621L151.208 84.5277L150.74 85.6429H151.949H176.08V149.456H106.445V85.0784L140.171 33.5098Z" stroke="#141414" stroke-width="1.60805"/>
</g>
</g>
</g>
<defs>
<clipPath id="clip0_87_1218">
<rect width="337.458" height="118.996" fill="white" transform="translate(34.8047 58.4346)"/>
</clipPath>
<clipPath id="clip1_87_1218">
<rect width="192.966" height="192.966" fill="white" transform="translate(0 0.544922)"/>
</clipPath>
<clipPath id="clip2_87_1218">
<rect width="192.966" height="192.966" fill="white" transform="translate(0 0.544922)"/>
</clipPath>
</defs>
</svg>
