<svg width="65" height="65" viewBox="0 0 65 65" fill="none" xmlns="http://www.w3.org/2000/svg">
<rect x="0.453125" y="0.435547" width="64" height="64" rx="4" fill="#232323" fill-opacity="0.6"/>
<path d="M32.4531 38.4355L28.4531 38.4355L28.4531 34.4355L32.4531 34.4355L32.4531 38.4355Z" fill="#A8D5BA"/>
<path d="M32.4531 30.4355L28.4531 30.4355L28.4531 26.4355L32.4531 26.4355L32.4531 30.4355Z" fill="#A8D5BA"/>
<path d="M36.4531 42.4355L32.4531 42.4355L32.4531 38.4355L36.4531 38.4355L36.4531 42.4355Z" fill="#A8D5BA"/>
<path d="M36.4531 26.4355L32.4531 26.4355L32.4531 22.4355L36.4531 22.4355L36.4531 26.4355Z" fill="#A8D5BA"/>
<path d="M40.4531 22.4355L36.4531 22.4355L36.4531 18.4355L40.4531 18.4355L40.4531 22.4355Z" fill="#A8D5BA"/>
<path d="M40.4531 46.4355L36.4531 46.4355L36.4531 42.4355L40.4531 42.4355L40.4531 46.4355Z" fill="#A8D5BA"/>
<path d="M28.4531 34.4355L24.4531 34.4355L24.4531 30.4355L28.4531 30.4355L28.4531 34.4355Z" fill="#A8D5BA"/>
</svg>
