<svg width="398" height="187" viewBox="0 0 398 187" fill="none" xmlns="http://www.w3.org/2000/svg">
<path d="M10.224 67.5918V36.1518H0.528V31.8318H24.528V36.1518H14.976V67.5918H10.224ZM23.2155 67.5918L36.0315 31.8318H41.5995L54.4155 67.5918H49.3755L46.4475 59.1918H31.1835L28.2555 67.5918H23.2155ZM32.6715 54.8718H44.9595L38.1435 35.2398H39.4875L32.6715 54.8718ZM58.9215 67.5918V31.8318H63.6255V51.9438L62.4735 51.4638L79.5615 31.8318H85.4655L71.1135 48.3918L71.3535 45.0318L86.1855 67.5918H80.5695L69.2415 50.5998L63.6255 57.0318V67.5918H58.9215ZM90.7028 67.5918V31.8318H113.983V36.1518H95.4068V47.4798H113.023V51.7998H95.4068V63.2718H113.983V67.5918H90.7028Z" fill="#909090"/>
<path d="M138.521 50.9668V19.5268H128.825V15.2068H152.825V19.5268H143.273V50.9668H138.521ZM157.359 50.9668V15.2068H162.063V31.1428H179.967V15.2068H184.719V50.9668H179.967V35.4628H162.063V50.9668H157.359ZM192.656 50.9668V15.2068H215.936V19.5268H197.36V30.8548H214.976V35.1748H197.36V46.6468H215.936V50.9668H192.656ZM230.062 50.9668V15.2068H252.718V19.5268H234.766V31.0948H251.038V35.4148H234.766V50.9668H230.062ZM258.047 50.9668V15.2068H262.751V50.9668H258.047ZM270.703 50.9668V15.2068H283.327C285.695 15.2068 287.775 15.6548 289.567 16.5508C291.359 17.4468 292.751 18.7268 293.743 20.3908C294.767 22.0548 295.279 24.0068 295.279 26.2468C295.279 28.7748 294.639 30.9188 293.359 32.6788C292.079 34.4388 290.351 35.7028 288.175 36.4708L296.479 50.9668H291.007L282.271 35.4628L285.391 37.2868H275.407V50.9668H270.703ZM275.407 32.9668H283.471C284.879 32.9668 286.111 32.6948 287.167 32.1508C288.223 31.6068 289.039 30.8228 289.615 29.7988C290.223 28.7748 290.527 27.5908 290.527 26.2468C290.527 24.8708 290.223 23.6868 289.615 22.6948C289.039 21.6708 288.223 20.8868 287.167 20.3428C286.111 19.7988 284.879 19.5268 283.471 19.5268H275.407V32.9668ZM314.116 51.5428C311.844 51.5428 309.764 51.1268 307.876 50.2948C305.988 49.4308 304.388 48.2628 303.076 46.7908C301.764 45.3188 300.82 43.6708 300.244 41.8468L304.324 40.1668C305.188 42.4708 306.468 44.2468 308.164 45.4948C309.892 46.7108 311.908 47.3188 314.212 47.3188C315.62 47.3188 316.852 47.0948 317.908 46.6468C318.964 46.1988 319.78 45.5748 320.356 44.7748C320.964 43.9428 321.268 42.9828 321.268 41.8948C321.268 40.3908 320.836 39.2068 319.972 38.3428C319.14 37.4468 317.908 36.7748 316.276 36.3268L309.7 34.3108C307.108 33.5108 305.124 32.2468 303.748 30.5188C302.372 28.7908 301.684 26.8068 301.684 24.5668C301.684 22.6148 302.148 20.9028 303.076 19.4308C304.036 17.9268 305.348 16.7588 307.012 15.9268C308.708 15.0628 310.628 14.6308 312.772 14.6308C314.916 14.6308 316.852 15.0148 318.58 15.7828C320.34 16.5508 321.828 17.5908 323.044 18.9028C324.26 20.1828 325.156 21.6548 325.732 23.3188L321.7 24.9988C320.932 22.9828 319.78 21.4628 318.244 20.4388C316.708 19.3828 314.9 18.8548 312.82 18.8548C311.54 18.8548 310.404 19.0788 309.412 19.5268C308.452 19.9428 307.7 20.5668 307.156 21.3988C306.644 22.1988 306.388 23.1588 306.388 24.2788C306.388 25.5908 306.804 26.7588 307.636 27.7828C308.468 28.8068 309.732 29.5908 311.428 30.1348L317.428 31.9108C320.244 32.7748 322.372 34.0068 323.812 35.6068C325.252 37.2068 325.972 39.1908 325.972 41.5588C325.972 43.5108 325.46 45.2388 324.436 46.7428C323.444 48.2468 322.052 49.4308 320.26 50.2948C318.5 51.1268 316.452 51.5428 314.116 51.5428ZM339.099 50.9668V19.5268H329.403V15.2068H353.403V19.5268H343.851V50.9668H339.099Z" fill="#141414"/>
<path d="M16.272 127.543C14 127.543 11.92 127.127 10.032 126.295C8.144 125.431 6.544 124.263 5.232 122.791C3.92 121.319 2.976 119.671 2.4 117.847L6.48 116.167C7.344 118.471 8.624 120.247 10.32 121.495C12.048 122.711 14.064 123.319 16.368 123.319C17.776 123.319 19.008 123.095 20.064 122.647C21.12 122.199 21.936 121.575 22.512 120.775C23.12 119.943 23.424 118.983 23.424 117.895C23.424 116.391 22.992 115.207 22.128 114.343C21.296 113.447 20.064 112.775 18.432 112.327L11.856 110.311C9.264 109.511 7.28 108.247 5.904 106.519C4.528 104.791 3.84 102.807 3.84 100.567C3.84 98.6148 4.304 96.9028 5.232 95.4308C6.192 93.9268 7.504 92.7588 9.168 91.9268C10.864 91.0628 12.784 90.6308 14.928 90.6308C17.072 90.6308 19.008 91.0148 20.736 91.7828C22.496 92.5508 23.984 93.5908 25.2 94.9028C26.416 96.1828 27.312 97.6548 27.888 99.3188L23.856 100.999C23.088 98.9828 21.936 97.4628 20.4 96.4388C18.864 95.3828 17.056 94.8548 14.976 94.8548C13.696 94.8548 12.56 95.0788 11.568 95.5268C10.608 95.9428 9.856 96.5668 9.312 97.3988C8.8 98.1988 8.544 99.1588 8.544 100.279C8.544 101.591 8.96 102.759 9.792 103.783C10.624 104.807 11.888 105.591 13.584 106.135L19.584 107.911C22.4 108.775 24.528 110.007 25.968 111.607C27.408 113.207 28.128 115.191 28.128 117.559C28.128 119.511 27.616 121.239 26.592 122.743C25.6 124.247 24.208 125.431 22.416 126.295C20.656 127.127 18.608 127.543 16.272 127.543ZM41.2553 126.967V95.5268H31.5593V91.2068H55.5593V95.5268H46.0073V126.967H41.2553ZM60.0934 126.967V91.2068H83.3734V95.5268H64.7974V106.855H82.4134V111.175H64.7974V122.647H83.3734V126.967H60.0934ZM89.2028 126.967V91.2068H101.827C104.195 91.2068 106.275 91.6548 108.067 92.5508C109.859 93.4468 111.251 94.7268 112.243 96.3908C113.267 98.0548 113.779 100.007 113.779 102.247C113.779 104.487 113.267 106.439 112.243 108.103C111.251 109.735 109.859 111.015 108.067 111.943C106.307 112.839 104.227 113.287 101.827 113.287H93.9068V126.967H89.2028ZM93.9068 108.967H101.971C103.411 108.967 104.659 108.695 105.715 108.151C106.771 107.607 107.587 106.823 108.163 105.799C108.739 104.775 109.027 103.591 109.027 102.247C109.027 100.871 108.739 99.6868 108.163 98.6948C107.587 97.6708 106.771 96.8868 105.715 96.3428C104.659 95.7988 103.411 95.5268 101.971 95.5268H93.9068V108.967ZM116.537 133.639V131.479C117.529 131.223 118.281 130.727 118.793 129.991C119.305 129.255 119.593 128.247 119.657 126.967H117.497V121.207H122.153V125.287C122.153 127.591 121.673 129.447 120.713 130.855C119.785 132.263 118.393 133.191 116.537 133.639ZM138.937 126.967V91.2068H143.641V122.647H159.337V126.967H138.937ZM164.625 126.967V91.2068H187.905V95.5268H169.329V106.855H186.945V111.175H169.329V122.647H187.905V126.967H164.625ZM199.974 126.967V95.5268H190.278V91.2068H214.278V95.5268H204.726V126.967H199.974ZM219.676 102.727L219.004 91.2068H223.42L222.796 102.727H219.676ZM243.897 127.543C241.625 127.543 239.545 127.127 237.657 126.295C235.769 125.431 234.169 124.263 232.857 122.791C231.545 121.319 230.601 119.671 230.025 117.847L234.105 116.167C234.969 118.471 236.249 120.247 237.945 121.495C239.673 122.711 241.689 123.319 243.993 123.319C245.401 123.319 246.633 123.095 247.689 122.647C248.745 122.199 249.561 121.575 250.137 120.775C250.745 119.943 251.049 118.983 251.049 117.895C251.049 116.391 250.617 115.207 249.753 114.343C248.921 113.447 247.689 112.775 246.057 112.327L239.481 110.311C236.889 109.511 234.905 108.247 233.529 106.519C232.153 104.791 231.465 102.807 231.465 100.567C231.465 98.6148 231.929 96.9028 232.857 95.4308C233.817 93.9268 235.129 92.7588 236.793 91.9268C238.489 91.0628 240.409 90.6308 242.553 90.6308C244.697 90.6308 246.633 91.0148 248.361 91.7828C250.121 92.5508 251.609 93.5908 252.825 94.9028C254.041 96.1828 254.937 97.6548 255.513 99.3188L251.481 100.999C250.713 98.9828 249.561 97.4628 248.025 96.4388C246.489 95.3828 244.681 94.8548 242.601 94.8548C241.321 94.8548 240.185 95.0788 239.193 95.5268C238.233 95.9428 237.481 96.5668 236.937 97.3988C236.425 98.1988 236.169 99.1588 236.169 100.279C236.169 101.591 236.585 102.759 237.417 103.783C238.249 104.807 239.513 105.591 241.209 106.135L247.209 107.911C250.025 108.775 252.153 110.007 253.593 111.607C255.033 113.207 255.753 115.191 255.753 117.559C255.753 119.511 255.241 121.239 254.217 122.743C253.225 124.247 251.833 125.431 250.041 126.295C248.281 127.127 246.233 127.543 243.897 127.543ZM10.224 186.967V155.527H0.528V151.207H24.528V155.527H14.976V186.967H10.224ZM23.2155 186.967L36.0315 151.207H41.5995L54.4155 186.967H49.3755L46.4475 178.567H31.1835L28.2555 186.967H23.2155ZM32.6715 174.247H44.9595L38.1435 154.615H39.4875L32.6715 174.247ZM58.9215 186.967V151.207H63.6255V182.647H79.3215V186.967H58.9215ZM84.609 186.967V151.207H89.313V171.319L88.161 170.839L105.249 151.207H111.153L96.801 167.767L97.041 164.407L111.873 186.967H106.257L94.929 169.975L89.313 176.407V186.967H84.609ZM117.83 176.503L117.542 151.207H122.246L121.91 176.503H117.83ZM117.542 186.967V181.207H122.246V186.967H117.542Z" fill="#141414"/>
</svg>
