<svg width="57" height="57" viewBox="0 0 57 57" fill="none" xmlns="http://www.w3.org/2000/svg">
<rect x="0.910156" y="0.0654297" width="56" height="56" rx="10" fill="white"/>
<path d="M37.0859 14.0654H20.7344C19.9323 14.0654 19.1758 14.2204 18.4648 14.5303C17.7539 14.8402 17.1387 15.2549 16.6191 15.7744C16.0996 16.2939 15.6849 16.9092 15.375 17.6201C15.0651 18.3311 14.9102 19.0876 14.9102 19.8896V36.2412C14.9102 37.0433 15.0651 37.7998 15.375 38.5107C15.6849 39.2217 16.0996 39.8369 16.6191 40.3564C17.1387 40.876 17.7539 41.2907 18.4648 41.6006C19.1758 41.9105 19.9323 42.0654 20.7344 42.0654H37.0859C37.888 42.0654 38.6445 41.9105 39.3555 41.6006C40.0664 41.2907 40.6816 40.876 41.2012 40.3564C41.7207 39.8369 42.1354 39.2217 42.4453 38.5107C42.7552 37.7998 42.9102 37.0433 42.9102 36.2412V19.8896C42.9102 19.0876 42.7552 18.3311 42.4453 17.6201C42.1354 16.9092 41.7207 16.2939 41.2012 15.7744C40.6816 15.2549 40.0664 14.8402 39.3555 14.5303C38.6445 14.2204 37.888 14.0654 37.0859 14.0654ZM24.2344 36.2412H20.7344V23.3896H24.2344V36.2412ZM22.4844 21.9131C21.9193 21.9131 21.4408 21.7126 21.0488 21.3115C20.6569 20.9105 20.4609 20.4274 20.4609 19.8623C20.4609 19.2972 20.6569 18.8141 21.0488 18.4131C21.4408 18.012 21.9193 17.8115 22.4844 17.8115C23.0495 17.8115 23.5326 18.012 23.9336 18.4131C24.3346 18.8141 24.5352 19.2972 24.5352 19.8623C24.5352 20.4274 24.3346 20.9105 23.9336 21.3115C23.5326 21.7126 23.0495 21.9131 22.4844 21.9131ZM38.2344 36.2412H34.7344V29.7061C34.7344 28.7217 34.4974 27.9925 34.0234 27.5186C33.5312 27.0628 32.9935 26.8441 32.4102 26.8623C31.8268 26.8805 31.2891 27.1266 30.7969 27.6006C30.3229 28.0928 30.0859 28.7946 30.0859 29.7061V36.2412H26.5859V23.3896H30.0859V25.4678C30.487 24.7021 31.1341 24.137 32.0273 23.7725C32.9388 23.4079 33.8548 23.3076 34.7754 23.4717C35.696 23.6357 36.5026 24.1097 37.1953 24.8936C37.888 25.6592 38.2344 26.8076 38.2344 28.3389V36.2412Z" fill="#141414"/>
</svg>
