<svg width="57" height="57" viewBox="0 0 57 57" fill="none" xmlns="http://www.w3.org/2000/svg">
<rect x="0.910156" y="0.0654297" width="56" height="56" rx="10" fill="white"/>
<path d="M42.418 21.4482C42.2539 20.7008 41.8939 20.0765 41.3379 19.5752C40.7819 19.0739 40.1393 18.7777 39.4102 18.6865C38.5352 18.5954 37.6602 18.5225 36.7852 18.4678C35.9102 18.4131 35.0352 18.3766 34.1602 18.3584C33.2852 18.3402 32.4102 18.3219 31.5352 18.3037C30.6602 18.3037 29.7852 18.3037 28.9102 18.3037C28.0352 18.3037 27.1602 18.3037 26.2852 18.3037C25.4102 18.3219 24.5352 18.3402 23.6602 18.3584C22.7852 18.3766 21.9102 18.4131 21.0352 18.4678C20.1602 18.5225 19.2943 18.5954 18.4375 18.6865C17.6901 18.7777 17.0384 19.0739 16.4824 19.5752C15.9264 20.0765 15.5664 20.7008 15.4023 21.4482C15.1654 22.5055 15.0241 23.5993 14.9785 24.7295C14.9329 25.8597 14.9102 26.9717 14.9102 28.0654C14.9102 29.1592 14.9284 30.2712 14.9648 31.4014C15.0013 32.5316 15.1471 33.6253 15.4023 34.6826C15.5664 35.43 15.9264 36.0544 16.4824 36.5557C17.0384 37.057 17.6901 37.3532 18.4375 37.4443C19.2943 37.5355 20.1602 37.6084 21.0352 37.6631C21.9102 37.7178 22.7852 37.7542 23.6602 37.7725C24.5352 37.7907 25.4102 37.8089 26.2852 37.8271C27.1602 37.8271 28.0352 37.8271 28.9102 37.8271C29.7852 37.8271 30.6602 37.8271 31.5352 37.8271C32.4102 37.8089 33.2852 37.7907 34.1602 37.7725C35.0352 37.7542 35.9102 37.7178 36.7852 37.6631C37.6602 37.6084 38.526 37.5355 39.3828 37.4443C40.1302 37.3532 40.7819 37.057 41.3379 36.5557C41.8939 36.0544 42.2539 35.43 42.418 34.6826C42.6549 33.6253 42.7962 32.5316 42.8418 31.4014C42.8874 30.2712 42.9102 29.1592 42.9102 28.0654C42.9102 26.9717 42.8919 25.8597 42.8555 24.7295C42.819 23.5993 42.6732 22.5055 42.418 21.4482ZM25.3008 32.4131C25.3008 31.6292 25.3008 30.8545 25.3008 30.0889C25.3008 29.3232 25.3008 28.5531 25.3008 27.7783C25.3008 27.0036 25.3008 26.2334 25.3008 25.4678C25.3008 24.7021 25.3008 23.9274 25.3008 23.1436C26.0482 23.5446 26.7865 23.9365 27.5156 24.3193C28.263 24.7021 29.0059 25.085 29.7441 25.4678C30.4824 25.8506 31.2253 26.2425 31.9727 26.6436C32.7018 27.0264 33.4401 27.4092 34.1875 27.792C33.4583 28.1748 32.7201 28.5576 31.9727 28.9404C31.2253 29.3232 30.4824 29.7106 29.7441 30.1025C29.0059 30.4945 28.263 30.8818 27.5156 31.2646C26.7865 31.6475 26.0482 32.0303 25.3008 32.4131Z" fill="#141414"/>
</svg>
