<svg width="48" height="48" viewBox="0 0 48 48" fill="none" xmlns="http://www.w3.org/2000/svg">
<path d="M24.0078 19.5L21.0078 19.5L21.0078 22.5L24.0078 22.5L24.0078 19.5Z" fill="white"/>
<path d="M24.0078 25.5L21.0078 25.5L21.0078 28.5L24.0078 28.5L24.0078 25.5Z" fill="white"/>
<path d="M27.0078 16.5L24.0078 16.5L24.0078 19.5L27.0078 19.5L27.0078 16.5Z" fill="white"/>
<path d="M27.0078 28.5L24.0078 28.5L24.0078 31.5L27.0078 31.5L27.0078 28.5Z" fill="white"/>
<path d="M30.0078 31.5L27.0078 31.5L27.0078 34.5L30.0078 34.5L30.0078 31.5Z" fill="white"/>
<path d="M30.0078 13.5L27.0078 13.5L27.0078 16.5L30.0078 16.5L30.0078 13.5Z" fill="white"/>
<path d="M21.0078 22.5L18.0078 22.5L18.0078 25.5L21.0078 25.5L21.0078 22.5Z" fill="white"/>
</svg>
