<svg width="48" height="48" viewBox="0 0 48 48" fill="none" xmlns="http://www.w3.org/2000/svg">
<path d="M23.9922 19.5L26.9922 19.5L26.9922 22.5L23.9922 22.5L23.9922 19.5Z" fill="white"/>
<path d="M23.9922 25.5L26.9922 25.5L26.9922 28.5L23.9922 28.5L23.9922 25.5Z" fill="white"/>
<path d="M20.9922 16.5L23.9922 16.5L23.9922 19.5L20.9922 19.5L20.9922 16.5Z" fill="white"/>
<path d="M20.9922 28.5L23.9922 28.5L23.9922 31.5L20.9922 31.5L20.9922 28.5Z" fill="white"/>
<path d="M17.9922 31.5L20.9922 31.5L20.9922 34.5L17.9922 34.5L17.9922 31.5Z" fill="white"/>
<path d="M17.9922 13.5L20.9922 13.5L20.9922 16.5L17.9922 16.5L17.9922 13.5Z" fill="white"/>
<path d="M26.9922 22.5L29.9922 22.5L29.9922 25.5L26.9922 25.5L26.9922 22.5Z" fill="white"/>
</svg>
