<svg width="194" height="39" viewBox="0 0 194 39" fill="none" xmlns="http://www.w3.org/2000/svg">
<path d="M31.5 22.1867V15.8117C31.5 15.5299 31.6119 15.2597 31.8112 15.0604C32.0105 14.8611 32.2807 14.7492 32.5625 14.7492C32.8443 14.7492 33.1145 14.8611 33.3138 15.0604C33.5131 15.2597 33.625 15.5299 33.625 15.8117V22.1867C33.625 22.4685 33.5131 22.7387 33.3138 22.938C33.1145 23.1373 32.8443 23.2492 32.5625 23.2492C32.2807 23.2492 32.0105 23.1373 31.8112 22.938C31.6119 22.7387 31.5 22.4685 31.5 22.1867ZM36.8125 12.6242C36.5307 12.6242 36.2605 12.7361 36.0612 12.9354C35.8619 13.1347 35.75 13.4049 35.75 13.6867V24.3117C35.75 24.5935 35.8619 24.8637 36.0612 25.063C36.2605 25.2623 36.5307 25.3742 36.8125 25.3742C37.0943 25.3742 37.3645 25.2623 37.5638 25.063C37.7631 24.8637 37.875 24.5935 37.875 24.3117V13.6867C37.875 13.4049 37.7631 13.1347 37.5638 12.9354C37.3645 12.7361 37.0943 12.6242 36.8125 12.6242ZM35.4737 29.9722C35.5696 30.0751 35.644 30.196 35.6927 30.3279C35.7414 30.4598 35.7635 30.6 35.7576 30.7405C35.7518 30.881 35.7181 31.0189 35.6585 31.1462C35.599 31.2736 35.5147 31.3879 35.4107 31.4824C35.3066 31.577 35.1848 31.65 35.0524 31.6971C34.9199 31.7443 34.7794 31.7646 34.639 31.7571C34.4986 31.7495 34.3611 31.7142 34.2345 31.6531C34.1078 31.592 33.9946 31.5064 33.9013 31.4012L28.3125 25.2533V31.7492C28.3124 31.948 28.2564 32.1428 28.1511 32.3114C28.0457 32.48 27.8952 32.6157 27.7166 32.703C27.5379 32.7903 27.3384 32.8257 27.1407 32.8053C26.9429 32.7848 26.7549 32.7093 26.5979 32.5872L17.3223 25.3742H11.3125C10.7489 25.3742 10.2084 25.1503 9.8099 24.7518C9.41138 24.3533 9.1875 23.8128 9.1875 23.2492V14.7492C9.1875 14.1856 9.41138 13.6451 9.8099 13.2466C10.2084 12.8481 10.7489 12.6242 11.3125 12.6242H16.8309L12.6513 8.02623C12.4657 7.81709 12.3701 7.54324 12.3851 7.26405C12.4001 6.98487 12.5246 6.72286 12.7315 6.53482C12.9384 6.34679 13.2111 6.24789 13.4904 6.25956C13.7698 6.27123 14.0332 6.39253 14.2237 6.59717L35.4737 29.9722ZM26.1875 22.9158L18.7633 14.7492H11.3125V23.2492H17.6875C17.9239 23.2488 18.1535 23.3279 18.3396 23.4737L26.1875 29.5764V22.9158ZM22.6095 11.2044L26.1875 8.41538V16.1809C26.1875 16.4627 26.2994 16.733 26.4987 16.9322C26.698 17.1315 26.9682 17.2434 27.25 17.2434C27.5318 17.2434 27.802 17.1315 28.0013 16.9322C28.2006 16.733 28.3125 16.4627 28.3125 16.1809V6.2492C28.3124 6.05039 28.2564 5.85561 28.1511 5.687C28.0457 5.51839 27.8952 5.38273 27.7166 5.29542C27.5379 5.20812 27.3384 5.17268 27.1407 5.19314C26.9429 5.2136 26.7549 5.28914 26.5979 5.41116L21.3053 9.52834C21.0873 9.70281 20.9468 9.95606 20.9141 10.2333C20.8813 10.5106 20.9591 10.7896 21.1304 11.0101C21.3018 11.2305 21.5531 11.3746 21.8299 11.4112C22.1066 11.4478 22.3867 11.374 22.6095 11.2058V11.2044Z" fill="white"/>
<path d="M56.1485 22.9848L59.2836 22.5813C59.2836 22.7882 59.2939 22.9848 59.3146 23.1711C59.3353 23.3573 59.3871 23.6574 59.4698 24.0713C59.5733 24.4851 59.6975 24.8576 59.8423 25.1887C60.0079 25.5198 60.2459 25.8923 60.5563 26.3062C60.8874 26.6994 61.2598 27.0305 61.6737 27.2995C62.1083 27.5685 62.6567 27.7961 63.3189 27.9824C64.0018 28.1686 64.7571 28.2617 65.5848 28.2617C66.1229 28.2617 66.6713 28.1996 67.23 28.0755C67.7887 27.9513 68.3681 27.7444 68.9683 27.4547C69.5891 27.165 70.0857 26.72 70.4582 26.1199C70.8514 25.4991 71.048 24.7541 71.048 23.885C71.048 22.7675 70.6962 21.9501 69.9926 21.4328C69.289 20.9155 68.2543 20.5223 66.8885 20.2533L64.9019 19.8497C62.2945 19.3324 60.3597 18.6081 59.0974 17.6769C57.835 16.725 57.2039 15.3695 57.2039 13.6106C57.2039 11.9137 57.8971 10.4858 59.2836 9.32698C60.7322 8.12675 62.6256 7.52663 64.964 7.52663C67.5714 7.52663 69.5891 8.07501 71.0169 9.17178C71.9068 9.83398 72.5379 10.5583 72.9104 11.3446C73.3036 12.1103 73.6036 13.0829 73.8106 14.2624L70.8617 14.4487C70.8617 14.1383 70.8203 13.8175 70.7376 13.4864C70.6755 13.1346 70.5203 12.7311 70.272 12.2758C70.0443 11.8206 69.7339 11.417 69.3407 11.0653C68.9683 10.7135 68.4199 10.4134 67.6956 10.1651C66.9713 9.91675 66.1436 9.79259 65.2123 9.79259C64.426 9.79259 63.681 9.88571 62.9774 10.072C62.2738 10.2582 61.6323 10.6203 61.0529 11.1584C60.4942 11.6964 60.2148 12.3897 60.2148 13.2381C60.2148 14.2107 60.577 14.9453 61.3012 15.442C62.0462 15.9179 63.143 16.3318 64.5915 16.6836L68.5958 17.6459C69.0096 17.7493 69.3407 17.8424 69.5891 17.9252C69.8581 17.9873 70.3133 18.1839 70.9549 18.515C71.617 18.8254 72.1447 19.1772 72.5379 19.5704C72.9518 19.9636 73.3243 20.5223 73.6554 21.2466C74.0072 21.9708 74.1831 22.7882 74.1831 23.6988C74.1831 25.4991 73.5726 26.9994 72.3517 28.1996C70.7376 29.7724 68.4302 30.5587 65.4296 30.5587C63.0085 30.5587 61.0115 30.0517 59.4388 29.0377C57.5143 27.7961 56.4175 25.7785 56.1485 22.9848ZM76.9454 22.7055C76.9454 22.1467 76.9972 21.5777 77.1006 20.9982C77.2041 20.3981 77.411 19.7256 77.7215 18.9806C78.0526 18.2149 78.4768 17.5424 78.9941 16.963C79.5115 16.3835 80.2254 15.8972 81.1359 15.5041C82.0671 15.1109 83.1329 14.9143 84.3331 14.9143C86.2162 14.9143 87.8407 15.5765 89.2065 16.9009C90.5929 18.2046 91.2862 20.0877 91.2862 22.5503C91.2862 25.0749 90.6033 27.0305 89.2375 28.4169C87.8924 29.7827 86.1852 30.4656 84.1158 30.4656C82.0051 30.4656 80.2771 29.7827 78.932 28.4169C77.6076 27.0511 76.9454 25.1473 76.9454 22.7055ZM79.646 22.8296C79.646 23.2435 79.6667 23.6677 79.708 24.1023C79.7701 24.5162 79.8943 25.0025 80.0805 25.5612C80.2668 26.1199 80.5151 26.6062 80.8255 27.0201C81.1359 27.4133 81.5705 27.7547 82.1292 28.0444C82.6879 28.3342 83.3398 28.479 84.0848 28.479C85.554 28.479 86.6715 27.941 87.4371 26.8649C88.2235 25.7888 88.6167 24.2885 88.6167 22.364C88.6167 20.8741 88.2752 19.5911 87.5924 18.515C86.9095 17.4389 85.8127 16.9009 84.3021 16.9009C83.4329 16.9009 82.6776 17.0871 82.0361 17.4596C81.4153 17.8321 80.9497 18.246 80.6393 18.7012C80.3496 19.1565 80.1219 19.7152 79.9564 20.3774C79.7908 21.0189 79.6977 21.5052 79.677 21.8363C79.6563 22.1467 79.646 22.4778 79.646 22.8296ZM106.62 30H104.168V27.7651C103.63 28.5721 102.905 29.2136 101.995 29.6896C101.105 30.1449 100.174 30.3725 99.2013 30.3725C97.3802 30.3725 96.0765 29.731 95.2902 28.448C94.7935 27.6202 94.5452 26.3993 94.5452 24.7852V15.3799H96.9974V23.6988C96.9974 25.1887 97.1112 26.1717 97.3388 26.6476C97.8148 27.5788 98.7046 28.0444 100.008 28.0444C101.56 28.0444 102.719 27.4857 103.485 26.3683C103.961 25.6647 104.199 24.4955 104.199 22.8607V15.3799H106.62V30ZM122.838 30H120.386V20.4085C120.386 19.3531 120.065 18.5667 119.424 18.0494C118.782 17.5113 117.996 17.2423 117.065 17.2423C115.989 17.2423 115.068 17.6148 114.302 18.3598C113.557 19.0841 113.185 20.0774 113.185 21.3397V30H110.701V15.3799H113.185V17.5217C113.578 16.8388 114.157 16.2387 114.923 15.7213C115.689 15.1833 116.64 14.9143 117.779 14.9143C118.11 14.9143 118.472 14.9557 118.865 15.0384C119.258 15.1005 119.765 15.2971 120.386 15.6282C121.027 15.9386 121.545 16.3732 121.938 16.9319C122.538 17.7804 122.838 19.053 122.838 20.7499V30ZM140.329 30H137.846V28.1376C136.521 29.6896 134.856 30.4656 132.848 30.4656C130.758 30.4656 129.113 29.7413 127.913 28.2928C126.713 26.8442 126.112 24.9611 126.112 22.6434C126.112 21.2983 126.319 20.1084 126.733 19.0737C127.147 18.0183 127.685 17.2009 128.347 16.6215C129.03 16.0421 129.744 15.6179 130.489 15.3489C131.255 15.0591 132.031 14.9143 132.817 14.9143C133.997 14.9143 135.042 15.173 135.952 15.6903C136.863 16.2076 137.494 16.7457 137.846 17.3044V8.08536H140.329V30ZM128.782 22.7365C128.782 24.2471 129.134 25.5509 129.837 26.6476C130.562 27.7237 131.731 28.2617 133.345 28.2617C134.607 28.2617 135.683 27.8168 136.573 26.927C137.463 26.0165 137.908 24.5369 137.908 22.4882C137.908 20.9568 137.494 19.6945 136.666 18.7012C135.859 17.6872 134.773 17.1802 133.407 17.1802C131.855 17.1802 130.696 17.7183 129.93 18.7944C129.165 19.8704 128.782 21.1845 128.782 22.7365ZM174.412 18.8564C174.412 19.9739 174.288 21.0707 174.039 22.1467C173.812 23.2021 173.419 24.2471 172.86 25.2818C172.301 26.3165 171.598 27.2167 170.749 27.9824C169.921 28.748 168.866 29.3688 167.583 29.8448C166.3 30.3208 164.872 30.5587 163.299 30.5587C161.851 30.5587 160.475 30.3208 159.171 29.8448C157.888 29.3688 156.729 28.6756 155.694 27.7651C154.66 26.8339 153.842 25.6233 153.242 24.1333C152.642 22.6227 152.342 20.9155 152.342 19.0116C152.342 17.0871 152.652 15.3695 153.273 13.8589C153.894 12.3483 154.722 11.148 155.756 10.2582C156.812 9.34768 157.981 8.66478 159.264 8.20952C160.568 7.75426 161.944 7.52663 163.392 7.52663C166.703 7.52663 169.363 8.58201 171.37 10.6928C173.398 12.7828 174.412 15.5041 174.412 18.8564ZM155.508 19.0427C155.508 21.8777 156.212 24.123 157.619 25.7785C159.047 27.434 160.992 28.2617 163.455 28.2617C165.752 28.2617 167.624 27.4754 169.073 25.9026C170.521 24.3092 171.246 21.9605 171.246 18.8564C171.246 17.6976 171.101 16.6112 170.811 15.5972C170.542 14.5832 170.118 13.6416 169.538 12.7725C168.959 11.8827 168.142 11.1791 167.086 10.6617C166.031 10.1444 164.8 9.88571 163.392 9.88571C162.006 9.88571 160.785 10.1444 159.73 10.6617C158.674 11.1791 157.847 11.8827 157.246 12.7725C156.667 13.6623 156.232 14.6349 155.943 15.6903C155.653 16.725 155.508 17.8424 155.508 19.0427ZM181.133 15.3799H183.895V17.4286H181.133V30H178.712V17.4286H176.291V15.3799H178.712V14.1072C178.712 12.162 178.836 10.879 179.084 10.2582C179.602 8.91311 180.76 8.24056 182.561 8.24056C183.099 8.24056 183.699 8.30264 184.361 8.42681V10.3824C184.051 10.2789 183.595 10.2272 182.995 10.2272C181.754 10.2272 181.133 11.0135 181.133 12.5862V15.3799ZM189.56 15.3799H192.322V17.4286H189.56V30H187.139V17.4286H184.718V15.3799H187.139V14.1072C187.139 12.162 187.263 10.879 187.511 10.2582C188.029 8.91311 189.187 8.24056 190.988 8.24056C191.526 8.24056 192.126 8.30264 192.788 8.42681V10.3824C192.478 10.2789 192.022 10.2272 191.422 10.2272C190.181 10.2272 189.56 11.0135 189.56 12.5862V15.3799Z" fill="white"/>
</svg>
