<?xml version="1.0" encoding="UTF-8"?>
<svg version="1.1" xmlns="http://www.w3.org/2000/svg" width="512" height="512">
<path d="M0 0 C5.84760638 2.88845471 10.01138952 6.58274488 14.5791626 11.19148254 C15.30989919 11.9168336 16.04063579 12.64218466 16.79351592 13.38951606 C19.23181735 15.81354926 21.65930338 18.2481252 24.08691406 20.68286133 C25.83613815 22.42638137 27.58599148 24.1692703 29.33642578 25.91157532 C33.59026854 30.14933958 37.83699623 34.39411241 42.08017901 38.64254145 C45.52954916 42.09595839 48.98165913 45.54661369 52.43572235 48.99533653 C52.92792205 49.48678781 53.42012176 49.97823909 53.9272366 50.48458284 C54.92723127 51.48304599 55.92722935 52.48150572 56.92723081 53.47996207 C66.29615805 62.83517382 75.65549565 72.19993338 85.01182529 81.56774177 C93.56806478 90.13391744 102.13569477 98.68859461 110.7088528 107.23783509 C119.51839904 116.0229897 128.320528 124.81551128 137.11456084 133.61619586 C142.04923311 138.55435958 146.98672292 143.48962266 151.9318924 148.41727638 C156.58039565 153.04951797 161.21832044 157.6921651 165.84927368 162.34196281 C167.55061125 164.04699246 169.25536874 165.74861742 170.96376801 167.44657135 C173.29480469 169.76444043 175.61317832 172.09428416 177.92877197 174.42756653 C178.94738512 175.43177217 178.94738512 175.43177217 179.98657632 176.45626479 C184.44187031 180.98189094 187.51720617 185.09643528 188.3203125 191.58984375 C187.92774483 196.30850714 187.15282521 199.32206537 183.89737797 202.83951759 C183.26442944 203.52830852 182.63148091 204.21709944 181.97935212 204.92676282 C178.85821225 208.19594528 175.71348815 211.43457534 172.51695251 214.63021851 C171.79649972 215.35434799 171.07604693 216.07847747 170.33376223 216.82455027 C167.93962289 219.22962789 165.54198793 221.63118817 163.14428711 224.03271484 C161.41883826 225.76443525 159.69357766 227.49634326 157.9684906 229.22842407 C152.81167846 234.40437144 147.65063589 239.57608652 142.48871002 244.74693245 C140.05399214 247.18604669 137.61975795 249.62564355 135.18545723 252.0651741 C127.0901091 260.1775101 118.99351654 268.28860103 110.89330196 276.39607811 C108.79759217 278.4936975 106.70188778 280.59132229 104.60620117 282.68896484 C104.08538535 283.21026441 103.56456952 283.73156398 103.02797139 284.2686605 C94.57384233 292.73110671 86.12827791 301.20204726 77.68621641 309.67653029 C69.00817102 318.38763064 60.32262862 327.09119815 51.62963873 335.78738558 C46.75304437 340.66614473 41.87979217 345.54814297 37.01490593 350.43857956 C32.44476936 355.03266501 27.86452299 359.61650527 23.27724648 364.19347763 C21.59435252 365.87587455 19.9148873 367.56170916 18.2390976 369.25118256 C15.95387032 371.5540252 13.65669639 373.84424626 11.35606384 376.13168335 C10.69350883 376.80520761 10.03095382 377.47873187 9.34832138 378.17266595 C5.18897871 382.27450827 1.718235 384.81408825 -4.34375 385.1171875 C-10.9169259 384.378896 -14.75019185 382.3682191 -19.375 377.5 C-21.73240253 372.42251764 -22.24512425 367.47586902 -21 362 C-17.51823132 356.49261143 -13.08567321 351.80408341 -8.46313477 347.25195312 C-7.52771347 346.31850319 -7.52771347 346.31850319 -6.57339478 345.36619568 C-4.53398314 343.3332152 -2.48768062 341.30732053 -0.44140625 339.28125 C0.99107779 337.85504776 2.42304031 336.42832153 3.85450745 335.00109863 C7.61058946 331.25826344 11.37220665 327.52104626 15.13549805 323.78546143 C21.15515917 317.80905325 27.16806916 311.8258728 33.17765999 305.83934021 C35.26620776 303.76093025 37.35818079 301.6860158 39.45054626 299.6114502 C40.74506324 298.32376869 42.03946706 297.03597343 43.33374023 295.74804688 C43.90694504 295.18157944 44.48014984 294.615112 45.07072449 294.03147888 C47.95262882 291.15754717 50.70506795 288.22367904 53.36209106 285.13989258 C57.32917348 280.55653736 61.57838091 276.28873847 65.87280273 272.01367188 C67.16180733 270.72444824 67.16180733 270.72444824 68.47685242 269.40917969 C70.80927115 267.07733389 73.14387723 264.74770633 75.4795177 262.41908836 C77.92899672 259.9759057 80.3756009 257.52984743 82.82252502 255.08410645 C87.44560932 250.46411708 92.07123434 245.84668041 96.69780165 241.23017931 C101.9695056 235.9696939 107.23833431 230.70633265 112.50693595 225.44274044 C123.33478485 214.62531426 134.16619816 203.81146442 145 193 C143.34464015 188.71429813 140.12106884 185.85215347 136.92219543 182.68841553 C136.29247493 182.05769174 135.66275442 181.42696795 135.01395148 180.77713132 C132.8991922 178.66141822 130.77736217 176.55294136 128.65551758 174.44433594 C127.13906956 172.93008886 125.62306879 171.41539379 124.10748291 169.90028381 C120.84027016 166.63600696 117.56992209 163.37491536 114.29712868 160.11623383 C109.11904228 154.96040191 103.94804225 149.79750224 98.77799988 144.63360596 C90.59493193 136.46192744 82.40720835 128.29493201 74.2174527 120.12995648 C59.56534428 105.52211363 44.91872087 90.90877654 30.27738684 76.29013467 C25.14045368 71.1615937 20.00072489 66.03587591 14.85870993 60.91243029 C11.65339987 57.71779642 8.4501467 54.52110592 5.24739075 51.32391167 C3.76606176 49.84604065 2.28386235 48.36904147 0.80071068 46.89299965 C-21.78143179 24.41669032 -21.78143179 24.41669032 -22.08984375 16.7734375 C-21.65805066 10.15261016 -19.32102363 6.15119263 -14.4375 1.625 C-9.65240237 -0.63704615 -5.20285169 -0.96009204 0 0 Z " fill="#000000" transform="translate(173,64)"/>
</svg>
