<svg width="49" height="48" viewBox="0 0 49 48" fill="none" xmlns="http://www.w3.org/2000/svg">
<rect x="0.5" width="48" height="48" rx="6" fill="#E7F0D3"/>
<path d="M24.5 28.5L21.5 28.5L21.5 25.5L24.5 25.5L24.5 28.5Z" fill="#141414"/>
<path d="M24.5 22.5L21.5 22.5L21.5 19.5L24.5 19.5L24.5 22.5Z" fill="#141414"/>
<path d="M27.5 31.5L24.5 31.5L24.5 28.5L27.5 28.5L27.5 31.5Z" fill="#141414"/>
<path d="M27.5 19.5L24.5 19.5L24.5 16.5L27.5 16.5L27.5 19.5Z" fill="#141414"/>
<path d="M30.5 16.5L27.5 16.5L27.5 13.5L30.5 13.5L30.5 16.5Z" fill="#141414"/>
<path d="M30.5 34.5L27.5 34.5L27.5 31.5L30.5 31.5L30.5 34.5Z" fill="#141414"/>
<path d="M21.5 25.5L18.5 25.5L18.5 22.5L21.5 22.5L21.5 25.5Z" fill="#141414"/>
</svg>
