<svg width="49" height="48" viewBox="0 0 49 48" fill="none" xmlns="http://www.w3.org/2000/svg">
<rect x="0.5" width="48" height="48" rx="6" fill="#E7F0D3"/>
<path d="M24.4941 19.5L27.4941 19.5L27.4941 22.5L24.4941 22.5L24.4941 19.5Z" fill="#141414"/>
<path d="M24.4941 25.5L27.4941 25.5L27.4941 28.5L24.4941 28.5L24.4941 25.5Z" fill="#141414"/>
<path d="M21.4941 16.5L24.4941 16.5L24.4941 19.5L21.4941 19.5L21.4941 16.5Z" fill="#141414"/>
<path d="M21.4941 28.5L24.4941 28.5L24.4941 31.5L21.4941 31.5L21.4941 28.5Z" fill="#141414"/>
<path d="M18.4941 31.5L21.4941 31.5L21.4941 34.5L18.4941 34.5L18.4941 31.5Z" fill="#141414"/>
<path d="M18.4941 13.5L21.4941 13.5L21.4941 16.5L18.4941 16.5L18.4941 13.5Z" fill="#141414"/>
<path d="M27.4941 22.5L30.4941 22.5L30.4941 25.5L27.4941 25.5L27.4941 22.5Z" fill="#141414"/>
</svg>
