<?xml version="1.0" encoding="UTF-8"?>
<svg version="1.1" xmlns="http://www.w3.org/2000/svg" width="512" height="512">
<path d="M0 0 C3.9020884 3.35761094 6.28638278 5.85738595 7.140625 11.0859375 C7.57902384 18.99704377 5.59004465 22.34326873 0.6875 28.3125 C-1.41382778 30.64415314 -3.61328528 32.85852576 -5.84936523 35.06054688 C-6.78478653 35.99399681 -6.78478653 35.99399681 -7.73910522 36.94630432 C-9.77851686 38.9792848 -11.82481938 41.00517947 -13.87109375 43.03125 C-15.30357779 44.45745224 -16.73554031 45.88417847 -18.16700745 47.31140137 C-21.92308946 51.05423656 -25.68470665 54.79145374 -29.44799805 58.52703857 C-35.46765917 64.50344675 -41.48056916 70.4866272 -47.49015999 76.47315979 C-49.57870776 78.55156975 -51.67068079 80.6264842 -53.76304626 82.7010498 C-55.05756324 83.98873131 -56.35196706 85.27652657 -57.64624023 86.56445312 C-58.21944504 87.13092056 -58.79264984 87.697388 -59.38322449 88.28102112 C-62.26512882 91.15495283 -65.01756795 94.08882096 -67.67459106 97.17260742 C-71.64167348 101.75596264 -75.89088091 106.02376153 -80.18530273 110.29882812 C-81.04463913 111.15831055 -81.90397552 112.01779297 -82.78935242 112.90332031 C-85.12177115 115.23516611 -87.45637723 117.56479367 -89.7920177 119.89341164 C-92.24149672 122.3365943 -94.6881009 124.78265257 -97.13502502 127.22839355 C-101.75810932 131.84838292 -106.38373434 136.46581959 -111.01030165 141.08232069 C-116.2820056 146.3428061 -121.55083431 151.60616735 -126.81943595 156.86975956 C-137.64728485 167.68718574 -148.47869816 178.50103558 -159.3125 189.3125 C-157.65714015 193.59820187 -154.43356884 196.46034653 -151.23469543 199.62408447 C-150.60497493 200.25480826 -149.97525442 200.88553205 -149.32645148 201.53536868 C-147.2116922 203.65108178 -145.08986217 205.75955864 -142.96801758 207.86816406 C-141.45156956 209.38241114 -139.93556879 210.89710621 -138.41998291 212.41221619 C-135.15277016 215.67649304 -131.88242209 218.93758464 -128.60962868 222.19626617 C-123.43154228 227.35209809 -118.26054225 232.51499776 -113.09049988 237.67889404 C-104.90743193 245.85057256 -96.71970835 254.01756799 -88.5299527 262.18254352 C-73.87784428 276.79038637 -59.23122087 291.40372346 -44.58988684 306.02236533 C-39.45295368 311.1509063 -34.31322489 316.27662409 -29.17120993 321.40006971 C-25.96589987 324.59470358 -22.7626467 327.79139408 -19.55989075 330.98858833 C-18.07856176 332.46645935 -16.59636235 333.94345853 -15.11321068 335.41950035 C7.46893179 357.89580968 7.46893179 357.89580968 7.77734375 365.5390625 C7.34555066 372.15988984 5.00852363 376.16130737 0.125 380.6875 C-4.66009763 382.94954615 -9.10964831 383.27259204 -14.3125 382.3125 C-20.16010638 379.42404529 -24.32388952 375.72975512 -28.8916626 371.12101746 C-29.62239919 370.3956664 -30.35313579 369.67031534 -31.10601592 368.92298394 C-33.54431735 366.49895074 -35.97180338 364.0643748 -38.39941406 361.62963867 C-40.14863815 359.88611863 -41.89849148 358.1432297 -43.64892578 356.40092468 C-47.90276854 352.16316042 -52.14949623 347.91838759 -56.39267901 343.66995855 C-59.84204916 340.21654161 -63.29415913 336.76588631 -66.74822235 333.31716347 C-67.24042205 332.82571219 -67.73262176 332.33426091 -68.2397366 331.82791716 C-69.23973127 330.82945401 -70.23972935 329.83099428 -71.23973081 328.83253793 C-80.60865805 319.47732618 -89.96799565 310.11256662 -99.32432529 300.74475823 C-107.88056478 292.17858256 -116.44819477 283.62390539 -125.0213528 275.07466491 C-133.83089904 266.2895103 -142.633028 257.49698872 -151.42706084 248.69630414 C-156.36173311 243.75814042 -161.29922292 238.82287734 -166.2443924 233.89522362 C-170.89289565 229.26298203 -175.53082044 224.6203349 -180.16177368 219.97053719 C-181.86311125 218.26550754 -183.56786874 216.56388258 -185.27626801 214.86592865 C-187.60730469 212.54805957 -189.92567832 210.21821584 -192.24127197 207.88493347 C-192.92034741 207.21546304 -193.59942284 206.54599262 -194.29907632 205.85623521 C-198.75437031 201.33060906 -201.82970617 197.21606472 -202.6328125 190.72265625 C-202.24024483 186.00399286 -201.46532521 182.99043463 -198.20987797 179.47298241 C-197.26045517 178.43979602 -197.26045517 178.43979602 -196.29185212 177.38573718 C-193.17071225 174.11655472 -190.02598815 170.87792466 -186.82945251 167.68228149 C-186.10899972 166.95815201 -185.38854693 166.23402253 -184.64626223 165.48794973 C-182.25212289 163.08287211 -179.85448793 160.68131183 -177.45678711 158.27978516 C-175.73133826 156.54806475 -174.00607766 154.81615674 -172.2809906 153.08407593 C-167.12417846 147.90812856 -161.96313589 142.73641348 -156.80121002 137.56556755 C-154.36649214 135.12645331 -151.93225795 132.68685645 -149.49795723 130.2473259 C-141.4026091 122.1349899 -133.30601654 114.02389897 -125.20580196 105.91642189 C-123.11009217 103.8188025 -121.01438778 101.72117771 -118.91870117 99.62353516 C-118.39788535 99.10223559 -117.87706952 98.58093602 -117.34047139 98.0438395 C-108.88634233 89.58139329 -100.44077791 81.11045274 -91.99871641 72.63596971 C-83.32067102 63.92486936 -74.63512862 55.22130185 -65.94213873 46.52511442 C-61.06554437 41.64635527 -56.19229217 36.76435703 -51.32740593 31.87392044 C-46.75726936 27.27983499 -42.17702299 22.69599473 -37.58974648 18.11902237 C-35.90685252 16.43662545 -34.2273873 14.75079084 -32.5515976 13.06131744 C-30.26637032 10.7584748 -27.96919639 8.46825374 -25.66856384 6.18081665 C-25.00600883 5.50729239 -24.34345382 4.83376813 -23.66082138 4.13983405 C-16.56137124 -2.86147056 -9.07065543 -4.62089993 0 0 Z " fill="#000000" transform="translate(353.3125,65.6875)"/>
</svg>
